<svg width="512" height="512" viewBox="0 0 512 512" fill="none" xmlns="http://www.w3.org/2000/svg">
<g filter="url(#filter0_d_1_26)">
<path d="M350.033 162.684C330.142 132.986 305.334 95.6953 276.28 44.784C274.331 41.3475 271.504 38.4892 268.089 36.5005C264.673 34.5119 260.79 33.4641 256.837 33.4641C252.883 33.4641 249 34.5119 245.585 36.5005C242.169 38.4892 239.342 41.3475 237.393 44.784C208.115 96.3651 183.531 134.102 163.64 162.684C122.741 223.867 100.392 256.914 100.392 323.903C100.392 365.358 116.875 405.115 146.214 434.428C175.553 463.741 215.345 480.209 256.837 480.209C298.328 480.209 338.12 463.741 367.46 434.428C396.799 405.115 413.281 365.358 413.281 323.903C413.281 256.914 390.932 223.867 350.033 162.684Z" fill="#FF6565" shape-rendering="crispEdges"/>
<path d="M351.696 161.572L351.695 161.571C331.811 131.884 307.037 94.6424 278.02 43.7972C275.896 40.0529 272.816 36.9387 269.095 34.7721C265.373 32.6056 261.143 31.4641 256.837 31.4641C252.53 31.4641 248.3 32.6056 244.578 34.7721C240.857 36.9387 237.777 40.0529 235.653 43.7972C206.408 95.3218 181.857 133.007 161.999 161.541L161.988 161.557L161.978 161.572L161.185 162.757C120.789 223.186 98.3922 256.688 98.3922 323.903C98.3922 365.889 115.086 406.155 144.8 435.843C174.514 465.531 214.815 482.209 256.837 482.209C298.858 482.209 339.159 465.531 368.873 435.843C398.587 406.155 415.281 365.889 415.281 323.903C415.281 256.688 392.884 223.186 352.488 162.757L351.696 161.572Z" stroke="black" stroke-opacity="0.2" stroke-width="4" shape-rendering="crispEdges"/>
</g>
<path d="M174.013 282.771L257.673 250.98L343.843 287.791V394.039L257.673 429.176L168.993 394.039L174.013 282.771Z" fill="#404040" fill-opacity="0.5"/>
<g filter="url(#filter1_d_1_26)">
<path d="M339.277 276.176L263.596 243.995C261.456 243.079 259.182 242.614 256.837 242.614C254.496 242.614 252.225 243.079 250.077 243.995L174.397 276.176C168.067 278.867 163.974 285.029 163.974 291.876V385.775C163.974 392.619 168.067 398.781 174.397 401.476L250.081 433.656C252.229 434.569 254.499 435.033 256.837 435.033C259.174 435.033 261.445 434.569 263.596 433.656L339.277 401.476C345.606 398.781 349.699 392.619 349.699 385.775V291.876C349.699 285.029 345.606 278.866 339.277 276.176ZM175.545 385.775V291.876C175.545 291.382 175.612 290.893 175.749 290.41L253.566 323.5V422.634L178.953 390.907C176.882 390.027 175.545 388.01 175.545 385.775ZM334.721 390.907L260.111 422.634V323.501L337.925 290.411C338.062 290.893 338.128 291.383 338.128 291.876V385.775C338.128 388.01 336.791 390.027 334.721 390.907ZM256.837 254.114C257.6 254.114 258.344 254.265 259.04 254.563L332.316 285.721L256.837 317.817L181.357 285.721L254.629 254.563C255.329 254.265 256.074 254.114 256.837 254.114Z" fill="white"/>
</g>
<defs>
<filter id="filter0_d_1_26" x="92.3922" y="29.4641" width="328.889" height="462.745" filterUnits="userSpaceOnUse" color-interpolation-filters="sRGB">
<feFlood flood-opacity="0" result="BackgroundImageFix"/>
<feColorMatrix in="SourceAlpha" type="matrix" values="0 0 0 0 0 0 0 0 0 0 0 0 0 0 0 0 0 0 127 0" result="hardAlpha"/>
<feOffset dy="4"/>
<feGaussianBlur stdDeviation="2"/>
<feComposite in2="hardAlpha" operator="out"/>
<feColorMatrix type="matrix" values="0 0 0 0 0 0 0 0 0 0 0 0 0 0 0 0 0 0 0.25 0"/>
<feBlend mode="normal" in2="BackgroundImageFix" result="effect1_dropShadow_1_26"/>
<feBlend mode="normal" in="SourceGraphic" in2="effect1_dropShadow_1_26" result="shape"/>
</filter>
<filter id="filter1_d_1_26" x="159.974" y="242.614" width="193.725" height="200.418" filterUnits="userSpaceOnUse" color-interpolation-filters="sRGB">
<feFlood flood-opacity="0" result="BackgroundImageFix"/>
<feColorMatrix in="SourceAlpha" type="matrix" values="0 0 0 0 0 0 0 0 0 0 0 0 0 0 0 0 0 0 127 0" result="hardAlpha"/>
<feOffset dy="4"/>
<feGaussianBlur stdDeviation="2"/>
<feComposite in2="hardAlpha" operator="out"/>
<feColorMatrix type="matrix" values="0 0 0 0 0 0 0 0 0 0 0 0 0 0 0 0 0 0 0.25 0"/>
<feBlend mode="normal" in2="BackgroundImageFix" result="effect1_dropShadow_1_26"/>
<feBlend mode="normal" in="SourceGraphic" in2="effect1_dropShadow_1_26" result="shape"/>
</filter>
</defs>
</svg>
